Coordinates
version=1
nRows=32
nColumns=12
inDegrees=yes

Units are S.I. units (second, meters, Newtons, ...)
Angles are in degrees

endheader
time	SC_y	SC_z	SC_x	AC_y	AC_z	AC_x	GH_y	GH_z	GH_yy	EL_x	PS_y
       0.0              -37.37          3.581          63.68          61.74          3.145         -3.795         -115.5         -8.592          39.01           87.7          110.4
   0.01476              -37.37          3.582          63.67          61.73          3.142         -3.797         -115.5         -8.593          38.98           87.7          110.4
   0.02953              -37.37          3.583          63.66          61.73          3.138         -3.799         -115.5         -8.595          38.94          87.71          110.4
   0.04429              -37.37          3.585          63.66          61.73          3.135         -3.801         -115.5         -8.596          38.91          87.71          110.4
   0.05905              -37.37          3.587          63.65          61.73          3.131         -3.803         -115.5         -8.598          38.87          87.72          110.4
   0.07381              -37.37          3.588          63.64          61.72          3.126         -3.805         -115.5         -8.599          38.83          87.73          110.4
   0.08858              -37.37           3.59          63.62          61.72          3.122         -3.807         -115.5         -8.601          38.78          87.73          110.4
    0.1033              -37.37          3.592          63.61          61.72          3.117         -3.809         -115.5         -8.603          38.74          87.74          110.4
    0.1181              -37.37          3.595           63.6          61.71          3.112         -3.812         -115.5         -8.605          38.69          87.75          110.4
    0.1329              -37.37          3.597          63.59          61.71          3.106         -3.815         -115.5         -8.607          38.63          87.76          110.4
    0.1476              -37.37          3.599          63.57          61.71            3.1         -3.818         -115.5          -8.61          38.58          87.77          110.4
    0.1624              -37.37          3.602          63.56           61.7          3.094         -3.821         -115.5         -8.612          38.52          87.78          110.4
    0.1772              -37.37          3.605          63.54           61.7          3.087         -3.824         -115.5         -8.615          38.45          87.79          110.4
    0.1919              -37.37          3.608          63.52          61.69           3.08         -3.828         -115.5         -8.618          38.38           87.8          110.4
    0.2067              -37.38          3.612           63.5          61.69          3.072         -3.832         -115.6         -8.621           38.3          87.81          110.4
    0.2214              -37.38          3.615          63.48          61.68          3.063         -3.837         -115.6         -8.625          38.21          87.83          110.4
    0.2362              -37.38          3.619          63.46          61.68          3.054         -3.841         -115.6         -8.629          38.12          87.84          110.4
     0.251              -37.38          3.624          63.43          61.67          3.043         -3.846         -115.6         -8.633          38.02          87.86          110.4
    0.2657              -37.38          3.629          63.41          61.66          3.032         -3.852         -115.6         -8.638          37.91          87.88          110.4
    0.2805              -37.38          3.634          63.38          61.65           3.02         -3.858         -115.6         -8.642          37.79           87.9          110.3
    0.2953              -37.38           3.64          63.34          61.65          3.006         -3.865         -115.6         -8.648          37.66          87.92          110.3
      0.31              -37.38          3.646          63.31          61.64          2.991         -3.873         -115.6         -8.654          37.52          87.94          110.3
    0.3248              -37.38          3.653          63.27          61.62          2.975         -3.881         -115.6         -8.661          37.36          87.97          110.3
    0.3395              -37.38          3.661          63.22          61.61          2.956          -3.89         -115.6         -8.668          37.18           88.0          110.3
    0.3543              -37.38          3.669          63.18           61.6          2.936           -3.9         -115.6         -8.676          36.99          88.03          110.3
    0.3691              -37.38          3.679          63.12          61.59          2.913         -3.912         -115.6         -8.685          36.77          88.07          110.3
    0.3838              -37.38           3.69          63.06          61.57          2.888         -3.924         -115.7         -8.696          36.52          88.11          110.2
    0.3986              -37.38          3.702          62.99          61.55          2.859         -3.939         -115.7         -8.707          36.24          88.15          110.2
    0.4134              -37.38          3.715          62.91          61.53          2.827         -3.955         -115.7          -8.72          35.93          88.21          110.2
    0.4281              -37.38          3.731          62.82          61.51          2.791         -3.973         -115.7         -8.735          35.58          88.26          110.2
    0.4429              -37.38          3.749          62.72          61.48          2.749         -3.994         -115.7         -8.752          35.17          88.33          110.1
    0.4576              -37.38          3.769          62.61          61.45          2.701         -4.018         -115.8         -8.771          34.71          88.41          110.1
